<mxfile host="app.diagrams.net" modified="2024-06-07T14:30:52.921Z" agent="Mozilla/5.0 (Macintosh; Intel Mac OS X 10_15_7) AppleWebKit/537.36 (KHTML, like Gecko) Chrome/125.0.0.0 Safari/537.36" version="24.5.2" etag="NxfdtwWDk6h5f7ppZ1-d" type="github">
  <diagram name="Page-1" id="KHps4zoonH9Fs_qiNikz">
    <mxGraphModel>
      <root>
        <mxCell id="0" />
        <mxCell id="1" parent="0" />
      </root>
    </mxGraphModel>
  </diagram>
</mxfile>
